<svg>
<symbol id="logo-white" xmlns="http://www.w3.org/2000/svg" width="279" height="31" viewBox="0 0 279 31" fill="none">
<path d="M9.17614 30L0.710227 0.90909H8.48011L12.8693 19.9716H13.1108L18.125 0.90909H24.4602L29.4744 20.0142H29.7159L34.1193 0.90909H41.875L33.4233 30H26.6477L21.4062 12.358H21.179L15.9375 30H9.17614ZM47.9084 30H40.3516L50.1669 0.90909H59.5277L69.343 30H61.7862L54.9538 8.23864H54.7266L47.9084 30ZM46.8999 18.5511H62.6953V23.892H46.8999V18.5511ZM67.8906 6.61932V0.90909H92.4787V6.61932H83.6577V30H76.7259V6.61932H67.8906ZM120.991 11.4489H113.888C113.794 10.7197 113.6 10.0616 113.306 9.47443C113.013 8.88731 112.624 8.38542 112.141 7.96875C111.658 7.55208 111.085 7.23485 110.423 7.01705C109.769 6.78977 109.045 6.67614 108.249 6.67614C106.838 6.67614 105.621 7.02178 104.599 7.71307C103.585 8.40436 102.804 9.40341 102.255 10.7102C101.715 12.017 101.445 13.5985 101.445 15.4545C101.445 17.3864 101.72 19.0057 102.269 20.3125C102.828 21.6098 103.609 22.59 104.613 23.2528C105.626 23.9062 106.824 24.233 108.207 24.233C108.983 24.233 109.689 24.1335 110.323 23.9347C110.967 23.7358 111.531 23.447 112.013 23.0682C112.506 22.6799 112.908 22.2112 113.221 21.6619C113.543 21.1032 113.765 20.4735 113.888 19.7727L120.991 19.8153C120.868 21.1032 120.494 22.3722 119.869 23.6222C119.253 24.8722 118.406 26.0133 117.326 27.0455C116.246 28.0682 114.93 28.8826 113.377 29.4886C111.834 30.0947 110.063 30.3977 108.065 30.3977C105.432 30.3977 103.074 29.8201 100.991 28.6648C98.9169 27.5 97.2786 25.8049 96.076 23.5795C94.8733 21.3542 94.272 18.6458 94.272 15.4545C94.272 12.2538 94.8828 9.54072 96.1044 7.31534C97.326 5.08996 98.9785 3.39962 101.062 2.24432C103.145 1.08901 105.479 0.511363 108.065 0.511363C109.826 0.511363 111.455 0.757575 112.951 1.25C114.447 1.73295 115.763 2.44318 116.9 3.38068C118.036 4.30871 118.96 5.44981 119.67 6.80398C120.38 8.15814 120.82 9.70644 120.991 11.4489ZM125.014 30V0.90909H132.045V12.5852H143.509V0.90909H150.526V30H143.509V18.3097H132.045V30H125.014ZM174.283 30H163.53V0.90909H174.268C177.232 0.90909 179.785 1.49148 181.925 2.65625C184.074 3.81155 185.732 5.47822 186.896 7.65625C188.061 9.82481 188.643 12.4195 188.643 15.4403C188.643 18.4706 188.061 21.0748 186.896 23.2528C185.741 25.4309 184.089 27.1023 181.939 28.267C179.789 29.4223 177.237 30 174.283 30ZM170.561 24.0057H174.013C175.642 24.0057 177.019 23.7311 178.146 23.1818C179.283 22.6231 180.14 21.7188 180.717 20.4688C181.304 19.2093 181.598 17.5331 181.598 15.4403C181.598 13.3475 181.304 11.6809 180.717 10.4403C180.13 9.19034 179.264 8.29072 178.118 7.74148C176.982 7.18276 175.58 6.90341 173.913 6.90341H170.561V24.0057ZM197.322 30H189.766L199.581 0.90909H208.942L218.757 30H211.2L204.368 8.23864H204.141L197.322 30ZM196.314 18.5511H212.109V23.892H196.314V18.5511ZM228.92 0.90909V30H221.889V0.90909H228.92ZM233.335 30V0.90909H240.366V24.2898H252.468V30H233.335ZM250.167 0.90909H258.022L264.173 13.0824H264.428L270.579 0.90909H278.434L267.795 20.2841V30H260.806V20.2841L250.167 0.90909Z" fill="white"/>
</symbol>
<symbol id="logo-turquoise" xmlns="http://www.w3.org/2000/svg" width="279" height="31" viewBox="0 0 279 31" fill="none">
<path d="M9.17614 30L0.710227 0.90909H8.48011L12.8693 19.9716H13.1108L18.125 0.90909H24.4602L29.4744 20.0142H29.7159L34.1193 0.90909H41.875L33.4233 30H26.6477L21.4062 12.358H21.179L15.9375 30H9.17614ZM47.9084 30H40.3516L50.1669 0.90909H59.5277L69.343 30H61.7862L54.9538 8.23864H54.7266L47.9084 30ZM46.8999 18.5511H62.6953V23.892H46.8999V18.5511ZM67.8906 6.61932V0.90909H92.4787V6.61932H83.6577V30H76.7259V6.61932H67.8906ZM120.991 11.4489H113.888C113.794 10.7197 113.6 10.0616 113.306 9.47443C113.013 8.88731 112.624 8.38542 112.141 7.96875C111.658 7.55208 111.085 7.23485 110.423 7.01705C109.769 6.78977 109.045 6.67614 108.249 6.67614C106.838 6.67614 105.621 7.02178 104.599 7.71307C103.585 8.40436 102.804 9.40341 102.255 10.7102C101.715 12.017 101.445 13.5985 101.445 15.4545C101.445 17.3864 101.72 19.0057 102.269 20.3125C102.828 21.6098 103.609 22.59 104.613 23.2528C105.626 23.9062 106.824 24.233 108.207 24.233C108.983 24.233 109.689 24.1335 110.323 23.9347C110.967 23.7358 111.531 23.447 112.013 23.0682C112.506 22.6799 112.908 22.2112 113.221 21.6619C113.543 21.1032 113.765 20.4735 113.888 19.7727L120.991 19.8153C120.868 21.1032 120.494 22.3722 119.869 23.6222C119.253 24.8722 118.406 26.0133 117.326 27.0455C116.246 28.0682 114.93 28.8826 113.377 29.4886C111.834 30.0947 110.063 30.3977 108.065 30.3977C105.432 30.3977 103.074 29.8201 100.991 28.6648C98.9169 27.5 97.2786 25.8049 96.076 23.5795C94.8733 21.3542 94.272 18.6458 94.272 15.4545C94.272 12.2538 94.8828 9.54072 96.1044 7.31534C97.326 5.08996 98.9785 3.39962 101.062 2.24432C103.145 1.08901 105.479 0.511363 108.065 0.511363C109.826 0.511363 111.455 0.757575 112.951 1.25C114.447 1.73295 115.763 2.44318 116.9 3.38068C118.036 4.30871 118.96 5.44981 119.67 6.80398C120.38 8.15814 120.82 9.70644 120.991 11.4489ZM125.014 30V0.90909H132.045V12.5852H143.509V0.90909H150.526V30H143.509V18.3097H132.045V30H125.014ZM174.283 30H163.53V0.90909H174.268C177.232 0.90909 179.785 1.49148 181.925 2.65625C184.074 3.81155 185.732 5.47822 186.896 7.65625C188.061 9.82481 188.643 12.4195 188.643 15.4403C188.643 18.4706 188.061 21.0748 186.896 23.2528C185.741 25.4309 184.089 27.1023 181.939 28.267C179.789 29.4223 177.237 30 174.283 30ZM170.561 24.0057H174.013C175.642 24.0057 177.019 23.7311 178.146 23.1818C179.283 22.6231 180.14 21.7188 180.717 20.4688C181.304 19.2093 181.598 17.5331 181.598 15.4403C181.598 13.3475 181.304 11.6809 180.717 10.4403C180.13 9.19034 179.264 8.29072 178.118 7.74148C176.982 7.18276 175.58 6.90341 173.913 6.90341H170.561V24.0057ZM197.322 30H189.766L199.581 0.90909H208.942L218.757 30H211.2L204.368 8.23864H204.141L197.322 30ZM196.314 18.5511H212.109V23.892H196.314V18.5511ZM228.92 0.90909V30H221.889V0.90909H228.92ZM233.335 30V0.90909H240.366V24.2898H252.468V30H233.335ZM250.167 0.90909H258.022L264.173 13.0824H264.428L270.579 0.90909H278.434L267.795 20.2841V30H260.806V20.2841L250.167 0.90909Z" fill="#23889E"/>
</symbol>
<symbol id="star-ob" width="20" height="20" viewBox="0 0 20 20" fill="none" xmlns="http://www.w3.org/2000/svg">
<path d="M11.4416 2.92501L12.9083 5.85835C13.1083 6.26668 13.6416 6.65835 14.0916 6.73335L16.7499 7.17501C18.4499 7.45835 18.8499 8.69168 17.6249 9.90835L15.5583 11.975C15.2083 12.325 15.0166 13 15.1249 13.4833L15.7166 16.0417C16.1833 18.0667 15.1083 18.85 13.3166 17.7917L10.8249 16.3167C10.3749 16.05 9.63326 16.05 9.17492 16.3167L6.68326 17.7917C4.89992 18.85 3.81659 18.0583 4.28326 16.0417L4.87492 13.4833C4.98326 13 4.79159 12.325 4.44159 11.975L2.37492 9.90835C1.15826 8.69168 1.54992 7.45835 3.24992 7.17501L5.90826 6.73335C6.34992 6.65835 6.88326 6.26668 7.08326 5.85835L8.54992 2.92501C9.34992 1.33335 10.6499 1.33335 11.4416 2.92501Z" stroke="#292D32" stroke-linecap="round" stroke-linejoin="round"/>
</symbol>
<symbol id="star-ow" width="20" height="20" viewBox="0 0 20 20" fill="none" xmlns="http://www.w3.org/2000/svg">
<path d="M11.4416 2.92501L12.9083 5.85835C13.1083 6.26668 13.6416 6.65835 14.0916 6.73335L16.7499 7.17501C18.4499 7.45835 18.8499 8.69168 17.6249 9.90835L15.5583 11.975C15.2083 12.325 15.0166 13 15.1249 13.4833L15.7166 16.0417C16.1833 18.0667 15.1083 18.85 13.3166 17.7917L10.8249 16.3167C10.3749 16.05 9.63326 16.05 9.17492 16.3167L6.68326 17.7917C4.89992 18.85 3.81659 18.0583 4.28326 16.0417L4.87492 13.4833C4.98326 13 4.79159 12.325 4.44159 11.975L2.37492 9.90835C1.15826 8.69168 1.54992 7.45835 3.24992 7.17501L5.90826 6.73335C6.34992 6.65835 6.88326 6.26668 7.08326 5.85835L8.54992 2.92501C9.34992 1.33335 10.6499 1.33335 11.4416 2.92501Z" stroke="white" stroke-linecap="round" stroke-linejoin="round"/>
</symbol>
<symbol id="star" width="20" height="20" viewBox="0 0 20 20" fill="none" xmlns="http://www.w3.org/2000/svg">
<path d="M11.4417 2.92501L12.9083 5.85835C13.1083 6.26668 13.6417 6.65835 14.0917 6.73335L16.75 7.17501C18.45 7.45835 18.85 8.69168 17.625 9.90835L15.5583 11.975C15.2083 12.325 15.0167 13 15.125 13.4833L15.7167 16.0417C16.1833 18.0667 15.1083 18.85 13.3167 17.7917L10.825 16.3167C10.375 16.05 9.63332 16.05 9.17499 16.3167L6.68332 17.7917C4.89999 18.85 3.81665 18.0583 4.28332 16.0417L4.87499 13.4833C4.98332 13 4.79165 12.325 4.44165 11.975L2.37499 9.90835C1.15832 8.69168 1.54999 7.45835 3.24999 7.17501L5.90832 6.73335C6.34999 6.65835 6.88332 6.26668 7.08332 5.85835L8.54999 2.92501C9.34999 1.33335 10.65 1.33335 11.4417 2.92501Z" fill="#FB6231" stroke="#151515" stroke-linecap="round" stroke-linejoin="round"/>
</symbol>
<symbol id="search" width="20" height="20" viewBox="0 0 20 20" fill="none" xmlns="http://www.w3.org/2000/svg">
<path d="M9.66659 16C13.1644 16 15.9999 13.1645 15.9999 9.66667C15.9999 6.16887 13.1644 3.33334 9.66659 3.33334C6.16878 3.33334 3.33325 6.16887 3.33325 9.66667C3.33325 13.1645 6.16878 16 9.66659 16Z" stroke="white" stroke-width="1.5" stroke-linecap="round" stroke-linejoin="round"/>
<path d="M16.6666 16.6667L15.3333 15.3333" stroke="white" stroke-width="1.5" stroke-linecap="round" stroke-linejoin="round"/>
</symbol>
</svg>
