<svg>
<symbol id="logo-white" xmlns="http://www.w3.org/2000/svg" width="355" height="57" viewBox="0 0 355 57" fill="none">
<path d="M32.6321 13.3636L16.299 45H6.41264L0.625 13.3636H9.56392L12.3651 35.9993H12.6946L23.0135 13.3636H32.6321ZM31.8494 45L37.1222 13.3636H45.8963L40.6236 45H31.8494ZM42.4155 9.24432C41.111 9.24432 40.0331 8.81179 39.1818 7.94673C38.3442 7.06794 38.0009 6.02438 38.152 4.81605C38.303 3.58025 38.8935 2.53669 39.9233 1.68537C40.9531 0.82031 42.1203 0.387781 43.4247 0.387781C44.7292 0.387781 45.7933 0.82031 46.6172 1.68537C47.4411 2.53669 47.7843 3.58025 47.647 4.81605C47.5097 6.02438 46.9261 7.06794 45.8963 7.94673C44.8802 8.81179 43.7199 9.24432 42.4155 9.24432ZM59.2686 45.5149C56.852 45.5149 54.7717 44.897 53.0279 43.6612C51.2978 42.4117 50.062 40.5786 49.3205 38.1619C48.5927 35.7315 48.5241 32.7519 49.1145 29.223C49.7187 25.598 50.8034 22.584 52.3688 20.1811C53.9341 17.7644 55.7878 15.9588 57.9299 14.7642C60.0719 13.5559 62.3032 12.9517 64.6238 12.9517C66.3813 12.9517 67.8025 13.2538 68.8873 13.858C69.9857 14.4484 70.8302 15.1899 71.4206 16.0824C72.0111 16.9612 72.423 17.8262 72.6564 18.6776H72.9242L75.5811 2.81818H84.3347L77.3319 45H68.6813L69.5257 39.9332H69.155C68.6058 40.812 67.878 41.6839 66.9718 42.549C66.0793 43.4003 64.9945 44.1075 63.7175 44.6705C62.4542 45.2334 60.9713 45.5149 59.2686 45.5149ZM63.1408 38.5327C64.5414 38.5327 65.8046 38.1482 66.9306 37.3793C68.0565 36.5966 69.004 35.505 69.7729 34.1044C70.5418 32.7038 71.0774 31.063 71.3794 29.1818C71.6953 27.3007 71.7021 25.6667 71.4 24.2798C71.098 22.893 70.5075 21.822 69.6287 21.0668C68.7637 20.3116 67.6171 19.9339 66.1891 19.9339C64.7473 19.9339 63.4703 20.3253 62.3581 21.108C61.2596 21.8906 60.3465 22.9754 59.6188 24.3622C58.9048 25.7491 58.3967 27.3556 58.0946 29.1818C57.7926 31.0218 57.772 32.6489 58.0328 34.0632C58.2937 35.4638 58.8498 36.5623 59.7012 37.3587C60.5525 38.1413 61.699 38.5327 63.1408 38.5327ZM98.8604 45.6179C95.6199 45.6179 92.9355 44.9588 90.8072 43.6406C88.6789 42.3087 87.1822 40.4276 86.3171 37.9972C85.4658 35.553 85.3216 32.6626 85.8846 29.326C86.4338 26.0717 87.5392 23.2157 89.2006 20.7578C90.8758 18.3 92.9767 16.3845 95.5032 15.0114C98.0297 13.6383 100.845 12.9517 103.948 12.9517C106.035 12.9517 107.923 13.2881 109.612 13.9609C111.315 14.62 112.729 15.6224 113.855 16.968C114.981 18.3 115.75 19.9683 116.162 21.973C116.587 23.9777 116.58 26.3258 116.141 29.017L115.75 31.4268H89.0565L89.9009 25.9893H108.355C108.561 24.7261 108.479 23.607 108.108 22.6321C107.738 21.6572 107.12 20.8951 106.255 20.3459C105.39 19.7829 104.325 19.5014 103.062 19.5014C101.771 19.5014 100.563 19.8172 99.4371 20.4489C98.3112 21.0805 97.3638 21.9112 96.5948 22.9411C95.8396 23.9571 95.3522 25.0625 95.1325 26.2571L94.1644 31.6534C93.8898 33.3149 93.9447 34.6948 94.3292 35.7933C94.7274 36.8918 95.4139 37.7157 96.3888 38.2649C97.3638 38.8004 98.5996 39.0682 100.096 39.0682C101.071 39.0682 101.984 38.9309 102.836 38.6562C103.701 38.3816 104.47 37.9766 105.142 37.4411C105.815 36.8918 106.364 36.2121 106.79 35.402L114.802 35.9375C114.061 37.8873 112.935 39.59 111.424 41.0455C109.914 42.4872 108.095 43.6132 105.966 44.4233C103.852 45.2197 101.483 45.6179 98.8604 45.6179ZM133.581 45.6179C130.354 45.6179 127.684 44.9313 125.569 43.5582C123.454 42.1714 121.965 40.2491 121.1 37.7912C120.248 35.3196 120.09 32.4429 120.626 29.1612C121.148 25.9207 122.232 23.0852 123.88 20.6548C125.528 18.2244 127.622 16.3364 130.162 14.9908C132.702 13.6314 135.565 12.9517 138.751 12.9517C141.964 12.9517 144.628 13.6451 146.742 15.032C148.857 16.4051 150.347 18.3274 151.212 20.799C152.077 23.2706 152.242 26.1473 151.706 29.429C151.171 32.6558 150.072 35.4844 148.411 37.9148C146.749 40.3452 144.655 42.2401 142.129 43.5994C139.602 44.9451 136.753 45.6179 133.581 45.6179ZM134.446 38.821C135.929 38.821 137.24 38.4022 138.38 37.5646C139.534 36.7133 140.488 35.5599 141.243 34.1044C142.012 32.6352 142.548 30.9737 142.85 29.12C143.152 27.2938 143.172 25.6735 142.911 24.2592C142.651 22.8312 142.101 21.7053 141.264 20.8814C140.44 20.0575 139.307 19.6456 137.865 19.6456C136.382 19.6456 135.064 20.0713 133.911 20.9226C132.757 21.7602 131.803 22.9136 131.048 24.3828C130.293 25.852 129.764 27.5204 129.462 29.3878C129.173 31.2003 129.153 32.8205 129.4 34.2486C129.647 35.6629 130.19 36.782 131.027 37.6058C131.865 38.416 133.004 38.821 134.446 38.821ZM177.987 24.1974L176.855 31.1591H157.597L158.73 24.1974H177.987ZM187.276 13.3636H196.051L190.531 46.5653C190.119 48.9957 189.302 50.9661 188.08 52.4766C186.858 54.0007 185.285 55.1129 183.363 55.8132C181.454 56.5135 179.258 56.8636 176.772 56.8636C176.498 56.8636 176.223 56.8568 175.948 56.843C175.674 56.843 175.378 56.8362 175.063 56.8224L176.195 49.9638C176.401 49.9775 176.601 49.9844 176.793 49.9844C176.985 49.9981 177.17 50.005 177.349 50.005C178.763 50.005 179.807 49.7029 180.48 49.0987C181.152 48.4946 181.592 47.602 181.798 46.4212L187.276 13.3636ZM192.487 9.28551C191.183 9.28551 190.112 8.85298 189.274 7.98792C188.437 7.10914 188.093 6.05871 188.244 4.83665C188.396 3.61458 188.986 2.57102 190.016 1.70597C191.046 0.840907 192.206 0.408378 193.497 0.408378C194.815 0.408378 195.886 0.840907 196.71 1.70597C197.534 2.57102 197.877 3.61458 197.74 4.83665C197.602 6.05871 197.019 7.10914 195.989 7.98792C194.973 8.85298 193.806 9.28551 192.487 9.28551ZM212.142 45.6179C208.915 45.6179 206.244 44.9313 204.13 43.5582C202.015 42.1714 200.525 40.2491 199.66 37.7912C198.809 35.3196 198.651 32.4429 199.186 29.1612C199.708 25.9207 200.793 23.0852 202.441 20.6548C204.088 18.2244 206.182 16.3364 208.723 14.9908C211.263 13.6314 214.126 12.9517 217.311 12.9517C220.525 12.9517 223.188 13.6451 225.303 15.032C227.417 16.4051 228.907 18.3274 229.772 20.799C230.637 23.2706 230.802 26.1473 230.267 29.429C229.731 32.6558 228.633 35.4844 226.971 37.9148C225.31 40.3452 223.216 42.2401 220.689 43.5994C218.163 44.9451 215.314 45.6179 212.142 45.6179ZM213.007 38.821C214.49 38.821 215.801 38.4022 216.941 37.5646C218.094 36.7133 219.048 35.5599 219.804 34.1044C220.573 32.6352 221.108 30.9737 221.41 29.12C221.712 27.2938 221.733 25.6735 221.472 24.2592C221.211 22.8312 220.662 21.7053 219.824 20.8814C219 20.0575 217.868 19.6456 216.426 19.6456C214.943 19.6456 213.625 20.0713 212.471 20.9226C211.318 21.7602 210.364 22.9136 209.608 24.3828C208.853 25.852 208.324 27.5204 208.022 29.3878C207.734 31.2003 207.713 32.8205 207.961 34.2486C208.208 35.6629 208.75 36.782 209.588 37.6058C210.425 38.416 211.565 38.821 213.007 38.821ZM242.831 35.8963L244.581 25.3714H245.858L258.031 13.3636H268.103L251.873 29.2642H249.772L242.831 35.8963ZM233.377 45L240.38 2.81818H249.154L242.151 45H233.377ZM253.15 45L246.147 31.2209L253.005 25.0213L263.427 45H253.15ZM280.167 45.6179C276.927 45.6179 274.242 44.9588 272.114 43.6406C269.985 42.3087 268.489 40.4276 267.624 37.9972C266.772 35.553 266.628 32.6626 267.191 29.326C267.74 26.0717 268.846 23.2157 270.507 20.7578C272.182 18.3 274.283 16.3845 276.81 15.0114C279.336 13.6383 282.151 12.9517 285.254 12.9517C287.342 12.9517 289.23 13.2881 290.919 13.9609C292.621 14.62 294.035 15.6224 295.161 16.968C296.287 18.3 297.056 19.9683 297.468 21.973C297.894 23.9777 297.887 26.3258 297.448 29.017L297.056 31.4268H270.363L271.208 25.9893H289.662C289.868 24.7261 289.786 23.607 289.415 22.6321C289.044 21.6572 288.426 20.8951 287.561 20.3459C286.696 19.7829 285.632 19.5014 284.369 19.5014C283.078 19.5014 281.87 19.8172 280.744 20.4489C279.618 21.0805 278.67 21.9112 277.901 22.9411C277.146 23.9571 276.659 25.0625 276.439 26.2571L275.471 31.6534C275.196 33.3149 275.251 34.6948 275.636 35.7933C276.034 36.8918 276.721 37.7157 277.695 38.2649C278.67 38.8004 279.906 39.0682 281.403 39.0682C282.378 39.0682 283.291 38.9309 284.142 38.6562C285.007 38.3816 285.776 37.9766 286.449 37.4411C287.122 36.8918 287.671 36.2121 288.097 35.402L296.109 35.9375C295.367 37.8873 294.241 39.59 292.731 41.0455C291.221 42.4872 289.401 43.6132 287.273 44.4233C285.158 45.2197 282.79 45.6179 280.167 45.6179ZM300.553 45L305.825 13.3636H314.332L313.405 18.8835H313.734C314.641 16.92 315.856 15.437 317.38 14.4347C318.918 13.4186 320.572 12.9105 322.344 12.9105C322.783 12.9105 323.243 12.938 323.724 12.9929C324.218 13.0341 324.657 13.1027 325.042 13.1989L323.724 21.005C323.339 20.8677 322.79 20.7578 322.076 20.6754C321.376 20.5793 320.71 20.5312 320.078 20.5312C318.801 20.5312 317.613 20.8127 316.515 21.3757C315.416 21.925 314.49 22.6939 313.734 23.6825C312.993 24.6712 312.505 25.8108 312.272 27.1016L309.327 45H300.553ZM354.335 22.3849L346.365 22.8793C346.323 22.179 346.131 21.5542 345.788 21.005C345.458 20.442 344.971 19.9957 344.325 19.6662C343.694 19.3366 342.897 19.1719 341.936 19.1719C340.494 19.1719 339.211 19.5014 338.085 20.1605C336.959 20.8196 336.32 21.6641 336.169 22.6939C336.046 23.353 336.217 23.9091 336.684 24.3622C337.151 24.8153 338.092 25.1998 339.506 25.5156L345.067 26.669C348.033 27.3007 350.175 28.3511 351.493 29.8203C352.825 31.2895 353.299 33.2119 352.914 35.5874C352.571 37.6058 351.685 39.3703 350.257 40.8807C348.829 42.3774 347.017 43.5445 344.82 44.3821C342.623 45.206 340.186 45.6179 337.508 45.6179C333.21 45.6179 329.942 44.7391 327.704 42.9815C325.466 41.224 324.388 38.8416 324.47 35.8345L333.039 35.3814C333.107 36.6721 333.56 37.647 334.398 38.3061C335.235 38.9515 336.382 39.281 337.838 39.2947C339.472 39.3222 340.858 38.9858 341.998 38.2855C343.151 37.5715 343.804 36.7064 343.955 35.6903C344.065 34.9763 343.859 34.3996 343.337 33.9602C342.829 33.5208 341.895 33.157 340.536 32.8686L335.263 31.777C332.27 31.1591 330.121 30.0537 328.816 28.4609C327.512 26.8681 327.066 24.8428 327.477 22.3849C327.807 20.4214 328.624 18.7393 329.928 17.3388C331.247 15.9245 332.942 14.8397 335.016 14.0845C337.103 13.3293 339.458 12.9517 342.08 12.9517C346.186 12.9517 349.276 13.7962 351.349 15.4851C353.436 17.174 354.432 19.474 354.335 22.3849Z" fill="white"/>
</symbol>
<symbol id="logo-turquoise" xmlns="http://www.w3.org/2000/svg" width="381" height="38" viewBox="0 0 381 38" fill="none">
<path d="M10.7727 0.636363L14.4837 27.2699H14.7855L27.3388 0.636363H37.1754L18.8693 37H7.16832L0.93608 0.636363H10.7727ZM49.8796 0.636363L43.8427 37H35.0536L41.0906 0.636363H49.8796ZM62.9966 37H49.3603L55.3972 0.636363H68.6252C72.3184 0.636363 75.396 1.38802 77.8581 2.89133C80.3321 4.38281 82.0781 6.52533 83.0961 9.31889C84.1259 12.1006 84.3212 15.415 83.682 19.2621C83.0665 22.9789 81.8295 26.1631 79.9711 28.8146C78.1245 31.4661 75.757 33.4962 72.8688 34.9048C69.9805 36.3016 66.6898 37 62.9966 37ZM59.3745 29.5071H63.5471C65.583 29.5071 67.3823 29.1402 68.9448 28.4062C70.5191 27.6605 71.8212 26.4709 72.851 24.8374C73.8809 23.192 74.6148 21.0317 75.0527 18.3565C75.4789 15.7997 75.4611 13.7815 74.9995 12.3018C74.5497 10.8104 73.6737 9.74503 72.3716 9.10582C71.0814 8.45478 69.3946 8.12926 67.3113 8.12926H62.9434L59.3745 29.5071ZM85.8837 37L91.9206 0.636363H117.276L116.068 7.77415H99.5023L98.2949 15.2315H113.565L112.357 22.3871H97.0875L95.8801 29.8622H112.446L111.239 37H85.8837ZM153.994 19.3864C153.332 23.3045 152.03 26.6129 150.088 29.3118C148.159 31.9988 145.809 34.0348 143.039 35.4197C140.281 36.8047 137.316 37.4972 134.144 37.4972C130.794 37.4972 127.894 36.7514 125.443 35.2599C122.993 33.7685 121.212 31.5964 120.099 28.7436C118.998 25.8909 118.785 22.4285 119.46 18.3565C120.099 14.4384 121.383 11.1241 123.313 8.41335C125.254 5.70265 127.615 3.64891 130.397 2.25213C133.191 0.843512 136.186 0.139203 139.382 0.139203C142.708 0.139203 145.59 0.89086 148.029 2.39418C150.479 3.89749 152.254 6.08144 153.355 8.94602C154.456 11.8106 154.669 15.2907 153.994 19.3864ZM145.205 18.3565C145.572 16.072 145.572 14.1484 145.205 12.5859C144.85 11.0234 144.152 9.84564 143.11 9.05256C142.069 8.24763 140.713 7.84517 139.044 7.84517C137.198 7.84517 135.529 8.3009 134.037 9.21236C132.557 10.112 131.32 11.4259 130.326 13.1541C129.332 14.8705 128.639 16.9479 128.249 19.3864C127.846 21.6946 127.834 23.6181 128.213 25.157C128.604 26.6958 129.332 27.8558 130.397 28.6371C131.463 29.4065 132.818 29.7912 134.463 29.7912C136.298 29.7912 137.949 29.3473 139.417 28.4595C140.885 27.5717 142.11 26.2756 143.093 24.571C144.087 22.8665 144.791 20.795 145.205 18.3565ZM177.201 15.4801L176.118 22.1562H159.303L160.387 15.4801H177.201ZM200.59 0.636363H209.255L205.1 25.8139C204.697 28.1695 203.804 30.2232 202.419 31.9751C201.034 33.727 199.282 35.0883 197.163 36.0589C195.044 37.0178 192.694 37.4972 190.114 37.4972C187.853 37.4972 185.859 37.1006 184.13 36.3075C182.402 35.5144 181.124 34.2834 180.295 32.6143C179.467 30.9453 179.271 28.8087 179.709 26.2045H188.445C188.327 27.1515 188.368 27.9505 188.569 28.6016C188.782 29.2526 189.143 29.7438 189.652 30.0753C190.173 30.4067 190.842 30.5724 191.659 30.5724C192.511 30.5724 193.257 30.389 193.896 30.022C194.547 29.6551 195.086 29.1106 195.512 28.3885C195.95 27.6664 196.263 26.7846 196.453 25.7429L200.59 0.636363ZM245.987 19.3864C245.324 23.3045 244.022 26.6129 242.08 29.3118C240.151 31.9988 237.801 34.0348 235.031 35.4197C232.273 36.8047 229.308 37.4972 226.136 37.4972C222.786 37.4972 219.886 36.7514 217.436 35.2599C214.985 33.7685 213.204 31.5964 212.091 28.7436C210.99 25.8909 210.777 22.4285 211.452 18.3565C212.091 14.4384 213.375 11.1241 215.305 8.41335C217.246 5.70265 219.608 3.64891 222.389 2.25213C225.183 0.843512 228.178 0.139203 231.374 0.139203C234.7 0.139203 237.582 0.89086 240.021 2.39418C242.471 3.89749 244.247 6.08144 245.347 8.94602C246.448 11.8106 246.661 15.2907 245.987 19.3864ZM237.198 18.3565C237.565 16.072 237.565 14.1484 237.198 12.5859C236.843 11.0234 236.144 9.84564 235.102 9.05256C234.061 8.24763 232.705 7.84517 231.036 7.84517C229.19 7.84517 227.521 8.3009 226.029 9.21236C224.55 10.112 223.313 11.4259 222.318 13.1541C221.324 14.8705 220.632 16.9479 220.241 19.3864C219.838 21.6946 219.827 23.6181 220.205 25.157C220.596 26.6958 221.324 27.8558 222.389 28.6371C223.455 29.4065 224.81 29.7912 226.455 29.7912C228.29 29.7912 229.941 29.3473 231.409 28.4595C232.877 27.5717 234.102 26.2756 235.085 24.571C236.079 22.8665 236.783 20.795 237.198 18.3565ZM248.188 37L254.225 0.636363H263.014L260.475 16.0128H260.955L275.514 0.636363H285.866L270.33 16.8651L280.06 37H269.548L262.943 22.7067L258.611 27.1989L256.977 37H248.188ZM283.296 37L289.333 0.636363H314.688L313.48 7.77415H296.914L295.707 15.2315H310.977L309.77 22.3871H294.5L293.292 29.8622H309.858L308.651 37H283.296ZM314.155 37L320.192 0.636363H335.213C337.936 0.636363 340.209 1.1276 342.032 2.11008C343.855 3.08073 345.151 4.47751 345.92 6.30043C346.69 8.1115 346.867 10.2599 346.453 12.7457C346.05 15.2552 345.151 17.3918 343.754 19.1555C342.369 20.9074 340.582 22.245 338.392 23.1683C336.214 24.0916 333.74 24.5533 330.97 24.5533H321.471L322.642 17.6286H330.508C331.822 17.6286 332.958 17.4569 333.917 17.1136C334.876 16.7585 335.64 16.2259 336.208 15.5156C336.788 14.7936 337.172 13.8703 337.362 12.7457C337.539 11.6212 337.457 10.692 337.113 9.9581C336.782 9.21236 336.196 8.65601 335.355 8.28906C334.527 7.91027 333.462 7.72088 332.159 7.72088H327.827L322.944 37H314.155ZM337.38 20.3807L343.683 37H334.095L327.987 20.3807H337.38ZM371.497 11.6094C371.592 10.2718 371.237 9.23603 370.432 8.50213C369.639 7.76823 368.384 7.40128 366.668 7.40128C365.531 7.40128 364.561 7.54924 363.756 7.84517C362.951 8.12926 362.317 8.53172 361.856 9.05256C361.394 9.56155 361.104 10.1534 360.986 10.8281C360.879 11.3608 360.909 11.8343 361.075 12.2486C361.24 12.6629 361.53 13.0298 361.945 13.3494C362.371 13.669 362.897 13.9472 363.525 14.1839C364.164 14.4207 364.88 14.6278 365.673 14.8054L368.656 15.5156C370.384 15.9062 371.882 16.4271 373.148 17.0781C374.427 17.7173 375.463 18.4927 376.256 19.4041C377.049 20.3037 377.593 21.3395 377.889 22.5114C378.185 23.6832 378.209 24.9972 377.96 26.4531C377.581 28.7495 376.676 30.7204 375.244 32.3658C373.823 34.0111 371.965 35.2718 369.668 36.1477C367.384 37.0237 364.726 37.4616 361.696 37.4616C358.666 37.4616 356.091 37.0059 353.972 36.0945C351.865 35.1712 350.338 33.7803 349.391 31.9219C348.444 30.0634 348.19 27.7197 348.628 24.8906H357.026C356.896 26.0625 357.044 27.0391 357.47 27.8203C357.908 28.6016 358.583 29.1934 359.494 29.5959C360.406 29.9983 361.507 30.1996 362.797 30.1996C363.981 30.1996 365.016 30.0398 365.904 29.7202C366.804 29.4006 367.52 28.9567 368.053 28.3885C368.597 27.8203 368.929 27.1693 369.047 26.4354C369.165 25.7607 369.053 25.1747 368.71 24.6776C368.378 24.1804 367.81 23.7483 367.005 23.3814C366.212 23.0144 365.17 22.683 363.88 22.3871L360.24 21.4993C357.233 20.7654 354.955 19.5935 353.404 17.9837C351.865 16.3738 351.321 14.1899 351.771 11.4318C352.149 9.17093 353.085 7.19413 354.576 5.50142C356.079 3.80871 357.979 2.49479 360.276 1.55966C362.584 0.612689 365.123 0.139203 367.893 0.139203C370.71 0.139203 373.077 0.618606 374.995 1.57741C376.924 2.52438 378.315 3.86198 379.168 5.5902C380.032 7.30658 380.28 9.31297 379.913 11.6094H371.497Z" fill="#23889E"/>
</symbol>
<symbol id="star-ob" width="20" height="20" viewBox="0 0 20 20" fill="none" xmlns="http://www.w3.org/2000/svg">
 <path d="M11.4416 2.92501L12.9083 5.85835C13.1083 6.26668 13.6416 6.65835 14.0916 6.73335L16.7499 7.17501C18.4499 7.45835 18.8499 8.69168 17.6249 9.90835L15.5583 11.975C15.2083 12.325 15.0166 13 15.1249 13.4833L15.7166 16.0417C16.1833 18.0667 15.1083 18.85 13.3166 17.7917L10.8249 16.3167C10.3749 16.05 9.63326 16.05 9.17492 16.3167L6.68326 17.7917C4.89992 18.85 3.81659 18.0583 4.28326 16.0417L4.87492 13.4833C4.98326 13 4.79159 12.325 4.44159 11.975L2.37492 9.90835C1.15826 8.69168 1.54992 7.45835 3.24992 7.17501L5.90826 6.73335C6.34992 6.65835 6.88326 6.26668 7.08326 5.85835L8.54992 2.92501C9.34992 1.33335 10.6499 1.33335 11.4416 2.92501Z" stroke="#292D32" stroke-linecap="round" stroke-linejoin="round"/>
</symbol>
<symbol id="star-ow" width="20" height="20" viewBox="0 0 20 20" fill="none" xmlns="http://www.w3.org/2000/svg">
<path d="M11.4416 2.92501L12.9083 5.85835C13.1083 6.26668 13.6416 6.65835 14.0916 6.73335L16.7499 7.17501C18.4499 7.45835 18.8499 8.69168 17.6249 9.90835L15.5583 11.975C15.2083 12.325 15.0166 13 15.1249 13.4833L15.7166 16.0417C16.1833 18.0667 15.1083 18.85 13.3166 17.7917L10.8249 16.3167C10.3749 16.05 9.63326 16.05 9.17492 16.3167L6.68326 17.7917C4.89992 18.85 3.81659 18.0583 4.28326 16.0417L4.87492 13.4833C4.98326 13 4.79159 12.325 4.44159 11.975L2.37492 9.90835C1.15826 8.69168 1.54992 7.45835 3.24992 7.17501L5.90826 6.73335C6.34992 6.65835 6.88326 6.26668 7.08326 5.85835L8.54992 2.92501C9.34992 1.33335 10.6499 1.33335 11.4416 2.92501Z" stroke="white" stroke-linecap="round" stroke-linejoin="round"/>
</symbol>
<symbol id="star" width="20" height="20" viewBox="0 0 20 20" fill="none" xmlns="http://www.w3.org/2000/svg">
<path d="M11.4417 2.92501L12.9083 5.85835C13.1083 6.26668 13.6417 6.65835 14.0917 6.73335L16.75 7.17501C18.45 7.45835 18.85 8.69168 17.625 9.90835L15.5583 11.975C15.2083 12.325 15.0167 13 15.125 13.4833L15.7167 16.0417C16.1833 18.0667 15.1083 18.85 13.3167 17.7917L10.825 16.3167C10.375 16.05 9.63332 16.05 9.17499 16.3167L6.68332 17.7917C4.89999 18.85 3.81665 18.0583 4.28332 16.0417L4.87499 13.4833C4.98332 13 4.79165 12.325 4.44165 11.975L2.37499 9.90835C1.15832 8.69168 1.54999 7.45835 3.24999 7.17501L5.90832 6.73335C6.34999 6.65835 6.88332 6.26668 7.08332 5.85835L8.54999 2.92501C9.34999 1.33335 10.65 1.33335 11.4417 2.92501Z" fill="#FB6231" stroke="#151515" stroke-linecap="round" stroke-linejoin="round"/>
</symbol>

<symbol id="search" width="20" height="20" viewBox="0 0 20 20" fill="none" xmlns="http://www.w3.org/2000/svg">
<path d="M9.66659 16C13.1644 16 15.9999 13.1645 15.9999 9.66667C15.9999 6.16887 13.1644 3.33334 9.66659 3.33334C6.16878 3.33334 3.33325 6.16887 3.33325 9.66667C3.33325 13.1645 6.16878 16 9.66659 16Z" stroke="white" stroke-width="1.5" stroke-linecap="round" stroke-linejoin="round"/>
<path d="M16.6666 16.6667L15.3333 15.3333" stroke="white" stroke-width="1.5" stroke-linecap="round" stroke-linejoin="round"/>
</symbol>


</svg>